<?xml version="1.0" encoding="utf-8"?>
<svg xmlns="http://www.w3.org/2000/svg">
<symbol id="calender" viewBox="0 0 20 22">
  <defs>
    <style>
      .cls-1 {
        fill: #51606b;
      }
    </style>
  </defs>
  <path id="Path_121" data-name="Path 121" class="cls-1" d="M18,2H17V0H15V2H5V0H3V2H2A2.006,2.006,0,0,0,0,4V20a2.006,2.006,0,0,0,2,2H18a2.006,2.006,0,0,0,2-2V4A2.006,2.006,0,0,0,18,2Zm0,18H2V7H18Z"/>

</symbol>
<symbol id="carrot-back" viewBox="0 0 7.4 12">
  <defs>
    <style>
      .cls-1 {
        fill: #fff;
      }
    </style>
  </defs>
  <path id="Path_126" data-name="Path 126" class="cls-1" d="M1.4,0,6,4.6,10.6,0,12,1.4l-6,6-6-6Z" transform="translate(7.4) rotate(90)"/>

</symbol>
<symbol id="carrot" viewBox="0 0 7.4 12">
  <defs>
    <style>
      .cls-1 {
        fill: #fff;
      }
    </style>
  </defs>
  <path id="Path_125" data-name="Path 125" class="cls-1" d="M1.4,0,6,4.6,10.6,0,12,1.4l-6,6-6-6Z" transform="translate(0 12) rotate(-90)"/>

</symbol>
<symbol id="close" viewBox="0 0 20 20">
  <defs>
    <style>
      .cls-1 {
        fill: #51606b;
      }
    </style>
  </defs>
  <g id="Group_144" data-name="Group 144">
    <path id="Path_119" data-name="Path 119" class="cls-1" d="M10,0A10,10,0,1,0,20,10,10.029,10.029,0,0,0,10,0Zm0,18a8,8,0,1,1,8-8A8.024,8.024,0,0,1,10,18Z"/>
    <path id="Path_120" data-name="Path 120" class="cls-1" d="M13.6,5,10,8.6,6.4,5,5,6.4,8.6,10,5,13.6,6.4,15,10,11.4,13.6,15,15,13.6,11.4,10,15,6.4Z"/>
  </g>

</symbol>
<symbol id="downward-carrot" viewBox="0 0 12 7.4">
  <defs>
    <style>
      .cls-1 {
        fill: #fff;
      }
    </style>
  </defs>
  <path id="Path_18" data-name="Path 18" class="cls-1" d="M1.4,0,6,4.6,10.6,0,12,1.4l-6,6-6-6Z"/>

</symbol>
<symbol id="favorite" viewBox="0 0 20 19">
  <defs>
    <style>
      .cls-1 {
        fill: #51606b;
      }
    </style>
  </defs>
  <path id="Path_21" data-name="Path 21" class="cls-1" d="M10,15.3,16.2,19l-1.6-7L20,7.2l-7.2-.6L10,0,7.2,6.6,0,7.2,5.5,12,3.9,19Z"/>

</symbol>
<symbol id="home" viewBox="0 0 20 17">
  <defs>
    <style>
      .cls-1 {
        fill: #51606b;
      }
    </style>
  </defs>
  <path id="Path_20" data-name="Path 20" class="cls-1" d="M8,17V11h4v6h5V9h3L10,0,0,9H3v8Z"/>

</symbol>
<symbol id="hosted-by-me" viewBox="0 0 24 24">
  <defs>
    <style>
      .cls-1 {
        fill: #51606b;
      }

      .cls-2 {
        fill: none;
      }
    </style>
  </defs>
  <circle id="Ellipse_1" data-name="Ellipse 1" class="cls-1" cx="4" cy="4" r="4" transform="translate(5 5)"/>
  <path id="Path_22" data-name="Path 22" class="cls-1" d="M9,15c-2.7,0-8,1.3-8,4v2H17V19C17,16.3,11.7,15,9,15Zm7.8-9.6L15.1,7a3.469,3.469,0,0,1,0,3.9l1.7,1.7A5.069,5.069,0,0,0,16.8,5.4ZM20.1,2,18.5,3.6a7.865,7.865,0,0,1,0,10.7l1.6,1.6A9.718,9.718,0,0,0,20.1,2Z"/>
  <!--<path id="Path_23" data-name="Path 23" class="cls-2" d="M0,0H24V24H0Z"/>-->

</symbol>
<symbol id="logo" viewBox="0 0 139.7 39">
<style type="text/css">
	.st0{fill:#FFFFFF;}
</style>
<g>
	<g id="Group_1" transform="translate(52.233 10.302)">
		<path id="Path_1" class="st0" d="M8.6,0c1.2,0,2.5,0.2,3.6,0.7c1,0.4,2,1.1,2.7,2c0.8,0.9,1.3,1.9,1.7,3c0.8,2.6,0.8,5.4,0,8
			c-0.3,1.1-0.9,2.2-1.7,3c-0.7,0.8-1.7,1.5-2.7,2c-1.2,0.5-2.4,0.7-3.6,0.7c-1.2,0-2.5-0.2-3.6-0.7c-1-0.4-2-1.1-2.7-2
			c-0.8-0.9-1.3-1.9-1.7-3C0.2,12.4,0,11.1,0,9.7c0-1.4,0.2-2.7,0.6-4c0.3-1.1,0.9-2.2,1.7-3C3,1.8,3.9,1.2,5,0.7
			C6.1,0.2,7.4,0,8.6,0z M8.6,18c1,0,2-0.2,2.9-0.6c0.8-0.4,1.5-0.9,2.1-1.6c0.6-0.8,1-1.7,1.3-2.6c0.3-1.1,0.4-2.3,0.4-3.4
			c0-1.1-0.1-2.3-0.4-3.4c-0.2-0.9-0.7-1.8-1.3-2.6C13.1,3,12.4,2.4,11.6,2c-1.9-0.8-4-0.8-5.9,0C4.8,2.4,4.1,3,3.6,3.7
			C3,4.5,2.6,5.4,2.3,6.3c-0.6,2.2-0.6,4.6,0,6.8C2.6,14.1,3,15,3.6,15.8c0.6,0.7,1.3,1.3,2.1,1.6C6.6,17.8,7.6,18,8.6,18z"/>
		<path id="Path_2" class="st0" d="M24,3.7c0.8-1.1,1.8-2,2.9-2.7c1.1-0.7,2.4-1,3.7-1c2.1-0.1,4.1,0.8,5.4,2.4
			c1.3,1.6,1.9,4,1.9,7.2c0,1.3-0.2,2.6-0.5,3.9c-0.3,1.1-0.9,2.2-1.6,3.1c-0.7,0.9-1.6,1.6-2.6,2.1c-1.1,0.5-2.3,0.8-3.5,0.8
			c-1.1,0-2.3-0.2-3.3-0.7c-1-0.5-1.8-1.2-2.4-2.1v9.2h-1.8V0.3h1c0.3,0,0.5,0.2,0.6,0.5L24,3.7z M24.1,15.1c0.3,0.5,0.7,1,1.2,1.4
			c0.4,0.4,0.8,0.7,1.3,0.9c0.4,0.2,0.9,0.4,1.4,0.5c0.5,0.1,1,0.1,1.6,0.1c1,0,2-0.2,2.9-0.6c0.8-0.4,1.5-1,2.1-1.7
			c0.6-0.8,1-1.7,1.3-2.7c0.3-1.1,0.4-2.3,0.4-3.4c0-2.8-0.5-4.9-1.5-6.2c-1.1-1.3-2.7-2.1-4.4-2c-1.2,0-2.4,0.3-3.4,1
			c-1.1,0.7-2,1.6-2.7,2.7L24.1,15.1z"/>
		<path id="Path_3" class="st0" d="M43.9,9v0.3c0,1.3,0.2,2.5,0.5,3.7c0.3,1,0.8,1.9,1.4,2.7c0.6,0.7,1.3,1.3,2.2,1.6
			c0.9,0.4,1.9,0.6,2.9,0.6c0.8,0,1.7-0.1,2.5-0.3c0.6-0.2,1.2-0.4,1.8-0.7c0.4-0.2,0.8-0.4,1.1-0.7c0.2-0.2,0.4-0.3,0.6-0.3
			c0.1,0,0.3,0.1,0.4,0.2l0.5,0.6c-0.3,0.4-0.7,0.8-1.2,1.1c-0.5,0.3-1.1,0.6-1.7,0.8c-0.6,0.2-1.3,0.4-2,0.6
			c-0.7,0.1-1.4,0.2-2.1,0.2c-1.2,0-2.4-0.2-3.5-0.7c-1-0.4-2-1.1-2.7-2c-0.8-0.9-1.4-2-1.8-3.2c-0.4-1.4-0.7-2.8-0.6-4.3
			c0-1.3,0.2-2.5,0.6-3.7c0.4-1.1,0.9-2.1,1.7-2.9C45.1,1.8,46,1.2,47,0.7C48.1,0.3,49.4,0,50.6,0c1,0,2,0.2,2.9,0.6
			c0.9,0.4,1.7,0.9,2.4,1.6c0.7,0.8,1.2,1.6,1.6,2.6c0.4,1.1,0.6,2.3,0.6,3.5c0,0.2,0,0.4-0.1,0.6c-0.1,0.1-0.2,0.2-0.4,0.1L43.9,9
			L43.9,9z M56.5,7.9c0-0.9-0.1-1.9-0.4-2.7c-0.3-0.7-0.7-1.4-1.2-2c-0.5-0.6-1.2-1-1.9-1.3c-0.7-0.3-1.5-0.5-2.3-0.5
			c-0.9,0-1.8,0.1-2.6,0.5c-0.7,0.3-1.4,0.7-2,1.3c-0.6,0.6-1,1.3-1.4,2C44.3,6,44.1,6.9,44,7.8L56.5,7.9L56.5,7.9z"/>
		<path id="Path_4" class="st0" d="M63,19.2V0.3h1c0.3,0,0.5,0.2,0.6,0.5l0.2,2.7c0.7-1,1.5-1.9,2.5-2.6c0.9-0.6,2.1-1,3.2-1
			c1.2-0.1,2.4,0.4,3.3,1.2c0.9,0.9,1.5,2.1,1.7,3.3c0.2-0.7,0.5-1.4,0.9-2c0.4-0.5,0.9-1,1.4-1.4c0.5-0.4,1.1-0.7,1.8-0.8
			C80.2,0.1,80.8,0,81.5,0c0.9,0,1.7,0.1,2.5,0.5c0.7,0.3,1.4,0.8,1.9,1.4c0.5,0.7,1,1.4,1.2,2.2c0.3,1,0.4,2,0.4,3v12.1h-1.8v-12
			c0.1-1.5-0.3-3-1.2-4.2c-0.8-1-2.1-1.5-3.4-1.4c-0.6,0-1.3,0.1-1.9,0.4c-0.6,0.2-1.1,0.6-1.6,1.1c-0.5,0.5-0.9,1.1-1.1,1.8
			c-0.3,0.8-0.4,1.6-0.4,2.5v12.1h-1.8V7.1c0.1-1.5-0.3-3-1.1-4.2c-0.8-1-1.9-1.5-3.2-1.5c-1,0-2,0.3-2.8,0.9
			c-0.9,0.7-1.7,1.5-2.3,2.5v14.3H63z"/>
	</g>
	<path id="Path_5" class="st0" d="M31.5,22.6c0,2.9-2.4,5.3-5.3,5.3c-2.9,0-5.3-2.4-5.3-5.3s2.4-5.3,5.3-5.3
		C29.1,17.3,31.5,19.7,31.5,22.6z"/>
	<path id="Path_6" class="st0" d="M42.6,16.8L34.5,2.7C33.5,1,31.8,0,29.8,0H13.6c-1.9,0-3.7,1-4.7,2.7L0.7,16.8c-1,1.7-1,3.7,0,5.4
		l8.1,14.1c1,1.7,2.8,2.7,4.7,2.7h16.3c1.9,0,3.7-1,4.7-2.7l8.1-14.1C43.6,20.5,43.6,18.5,42.6,16.8z M10.3,27.2c-0.1,0-0.2,0-0.2,0
		c-0.6,0-1.1-0.4-1.3-1c-0.2-1.2-0.4-2.4-0.4-3.6c0-7.5,4.7-14.2,11.8-16.7c0.7-0.2,1.4,0.1,1.6,0.8c0.2,0.7-0.1,1.4-0.8,1.6
		C15,10.4,11,16.2,11,22.6c0,1,0.1,2,0.3,3C11.4,26.3,11,27,10.3,27.2C10.3,27.2,10.3,27.2,10.3,27.2z M15,26.2c-0.1,0-0.2,0-0.2,0
		c-0.6,0-1.1-0.4-1.3-1c-1.3-6.3,2.2-12.7,8.3-14.8c0.7-0.2,1.4,0.1,1.6,0.8c0.2,0.7-0.1,1.4-0.8,1.6c-4.2,1.4-6.9,5.4-6.9,9.8
		c0,0.7,0.1,1.4,0.2,2.1C16.1,25.4,15.7,26.1,15,26.2z M26.2,31.1c-4.7,0-8.5-3.8-8.5-8.5s3.8-8.5,8.5-8.5s8.5,3.8,8.5,8.5l0,0
		C34.6,27.3,30.9,31.1,26.2,31.1L26.2,31.1z"/>
</g>

</symbol>
<symbol id="my-open-mics" viewBox="0 0 14 19">
  <defs>
    <style>
      .cls-1 {
        fill: #51606b;
      }
    </style>
  </defs>
  <path id="Path_27" data-name="Path 27" class="cls-1" d="M7,12a2.946,2.946,0,0,0,3-3V3A2.946,2.946,0,0,0,7,0,2.946,2.946,0,0,0,4,3V9A2.946,2.946,0,0,0,7,12Zm5.3-3A5.164,5.164,0,0,1,7,14.1,5.164,5.164,0,0,1,1.7,9H0a6.961,6.961,0,0,0,6,6.7V19H8V15.7A6.961,6.961,0,0,0,14,9Z"/>

</symbol>
<symbol id="near-me" viewBox="0 0 14 20">
  <defs>
    <style>
      .cls-1 {
        fill: #51606b;
      }
    </style>
  </defs>
  <path id="Path_26" data-name="Path 26" class="cls-1" d="M13,6A6,6,0,0,0,1,6c0,4.5,6,11,6,11S13,10.5,13,6ZM5,6A2,2,0,1,1,7,8,2.006,2.006,0,0,1,5,6ZM0,18v2H14V18Z"/>

</symbol>
<symbol id="plus" viewBox="0 0 14 14">
  <defs>
    <style>
      .cls-1 {
        fill: #fff;
      }
    </style>
  </defs>
  <path id="Path_127" data-name="Path 127" class="cls-1" d="M14,8H8v6H6V8H0V6H6V0H8V6h6Z"/>

</symbol>
<symbol id="search" viewBox="0 0 24 24">
  <defs>
    <style>
      .cls-1 {
        fill: #cbcbcb;
      }
    </style>
  </defs>
  <path id="Path_28" data-name="Path 28" class="cls-1" d="M17.143,15.086h-1.1l-.411-.411a8.584,8.584,0,0,0,2.194-5.76,8.914,8.914,0,1,0-8.914,8.914,8.584,8.584,0,0,0,5.76-2.194l.411.411v1.1L21.943,24,24,21.943Zm-8.229,0a6.171,6.171,0,1,1,6.171-6.171A6.146,6.146,0,0,1,8.914,15.086Z"/>

</symbol>
<symbol id="time" viewBox="0 0 20 20">
  <defs>
    <style>
      .cls-1 {
        fill: #51606b;
      }
    </style>
  </defs>
  <g id="Group_153" data-name="Group 153" transform="translate(-2 -2)">
    <path id="Path_122" data-name="Path 122" class="cls-1" d="M12,2A10,10,0,1,0,22,12,10.029,10.029,0,0,0,12,2Zm0,18a8,8,0,1,1,8-8A8.024,8.024,0,0,1,12,20Z"/>
    <path id="Path_124" data-name="Path 124" class="cls-1" d="M12.5,7H11v6l5.2,3.1.8-1.2-4.5-2.7Z"/>
  </g>

</symbol></svg>