<svg id="Group_13" data-name="Group 13" xmlns="http://www.w3.org/2000/svg" viewBox="0 0 24 24">
  <defs>
    <style>
      .cls-1 {
        fill: #51606b;
      }

      .cls-2 {
        fill: none;
      }
    </style>
  </defs>
  <circle id="Ellipse_1" data-name="Ellipse 1" class="cls-1" cx="4" cy="4" r="4" transform="translate(5 5)"/>
  <path id="Path_22" data-name="Path 22" class="cls-1" d="M9,15c-2.7,0-8,1.3-8,4v2H17V19C17,16.3,11.7,15,9,15Zm7.8-9.6L15.1,7a3.469,3.469,0,0,1,0,3.9l1.7,1.7A5.069,5.069,0,0,0,16.8,5.4ZM20.1,2,18.5,3.6a7.865,7.865,0,0,1,0,10.7l1.6,1.6A9.718,9.718,0,0,0,20.1,2Z"/>
  <path id="Path_23" data-name="Path 23" class="cls-2" d="M0,0H24V24H0Z"/>
</svg>
