<?xml version="1.0" encoding="utf-8"?>
<!-- Generator: Adobe Illustrator 21.1.0, SVG Export Plug-In . SVG Version: 6.00 Build 0)  -->
<svg version="1.1" id="Group_2" xmlns="http://www.w3.org/2000/svg" xmlns:xlink="http://www.w3.org/1999/xlink" x="0px" y="0px"
	 viewBox="0 0 139.7 39" style="enable-background:new 0 0 139.7 39;" xml:space="preserve">
<style type="text/css">
	.st0{fill:#FFFFFF;}
</style>
<g>
	<g id="Group_1" transform="translate(52.233 10.302)">
		<path id="Path_1" class="st0" d="M8.6,0c1.2,0,2.5,0.2,3.6,0.7c1,0.4,2,1.1,2.7,2c0.8,0.9,1.3,1.9,1.7,3c0.8,2.6,0.8,5.4,0,8
			c-0.3,1.1-0.9,2.2-1.7,3c-0.7,0.8-1.7,1.5-2.7,2c-1.2,0.5-2.4,0.7-3.6,0.7c-1.2,0-2.5-0.2-3.6-0.7c-1-0.4-2-1.1-2.7-2
			c-0.8-0.9-1.3-1.9-1.7-3C0.2,12.4,0,11.1,0,9.7c0-1.4,0.2-2.7,0.6-4c0.3-1.1,0.9-2.2,1.7-3C3,1.8,3.9,1.2,5,0.7
			C6.1,0.2,7.4,0,8.6,0z M8.6,18c1,0,2-0.2,2.9-0.6c0.8-0.4,1.5-0.9,2.1-1.6c0.6-0.8,1-1.7,1.3-2.6c0.3-1.1,0.4-2.3,0.4-3.4
			c0-1.1-0.1-2.3-0.4-3.4c-0.2-0.9-0.7-1.8-1.3-2.6C13.1,3,12.4,2.4,11.6,2c-1.9-0.8-4-0.8-5.9,0C4.8,2.4,4.1,3,3.6,3.7
			C3,4.5,2.6,5.4,2.3,6.3c-0.6,2.2-0.6,4.6,0,6.8C2.6,14.1,3,15,3.6,15.8c0.6,0.7,1.3,1.3,2.1,1.6C6.6,17.8,7.6,18,8.6,18z"/>
		<path id="Path_2" class="st0" d="M24,3.7c0.8-1.1,1.8-2,2.9-2.7c1.1-0.7,2.4-1,3.7-1c2.1-0.1,4.1,0.8,5.4,2.4
			c1.3,1.6,1.9,4,1.9,7.2c0,1.3-0.2,2.6-0.5,3.9c-0.3,1.1-0.9,2.2-1.6,3.1c-0.7,0.9-1.6,1.6-2.6,2.1c-1.1,0.5-2.3,0.8-3.5,0.8
			c-1.1,0-2.3-0.2-3.3-0.7c-1-0.5-1.8-1.2-2.4-2.1v9.2h-1.8V0.3h1c0.3,0,0.5,0.2,0.6,0.5L24,3.7z M24.1,15.1c0.3,0.5,0.7,1,1.2,1.4
			c0.4,0.4,0.8,0.7,1.3,0.9c0.4,0.2,0.9,0.4,1.4,0.5c0.5,0.1,1,0.1,1.6,0.1c1,0,2-0.2,2.9-0.6c0.8-0.4,1.5-1,2.1-1.7
			c0.6-0.8,1-1.7,1.3-2.7c0.3-1.1,0.4-2.3,0.4-3.4c0-2.8-0.5-4.9-1.5-6.2c-1.1-1.3-2.7-2.1-4.4-2c-1.2,0-2.4,0.3-3.4,1
			c-1.1,0.7-2,1.6-2.7,2.7L24.1,15.1z"/>
		<path id="Path_3" class="st0" d="M43.9,9v0.3c0,1.3,0.2,2.5,0.5,3.7c0.3,1,0.8,1.9,1.4,2.7c0.6,0.7,1.3,1.3,2.2,1.6
			c0.9,0.4,1.9,0.6,2.9,0.6c0.8,0,1.7-0.1,2.5-0.3c0.6-0.2,1.2-0.4,1.8-0.7c0.4-0.2,0.8-0.4,1.1-0.7c0.2-0.2,0.4-0.3,0.6-0.3
			c0.1,0,0.3,0.1,0.4,0.2l0.5,0.6c-0.3,0.4-0.7,0.8-1.2,1.1c-0.5,0.3-1.1,0.6-1.7,0.8c-0.6,0.2-1.3,0.4-2,0.6
			c-0.7,0.1-1.4,0.2-2.1,0.2c-1.2,0-2.4-0.2-3.5-0.7c-1-0.4-2-1.1-2.7-2c-0.8-0.9-1.4-2-1.8-3.2c-0.4-1.4-0.7-2.8-0.6-4.3
			c0-1.3,0.2-2.5,0.6-3.7c0.4-1.1,0.9-2.1,1.7-2.9C45.1,1.8,46,1.2,47,0.7C48.1,0.3,49.4,0,50.6,0c1,0,2,0.2,2.9,0.6
			c0.9,0.4,1.7,0.9,2.4,1.6c0.7,0.8,1.2,1.6,1.6,2.6c0.4,1.1,0.6,2.3,0.6,3.5c0,0.2,0,0.4-0.1,0.6c-0.1,0.1-0.2,0.2-0.4,0.1L43.9,9
			L43.9,9z M56.5,7.9c0-0.9-0.1-1.9-0.4-2.7c-0.3-0.7-0.7-1.4-1.2-2c-0.5-0.6-1.2-1-1.9-1.3c-0.7-0.3-1.5-0.5-2.3-0.5
			c-0.9,0-1.8,0.1-2.6,0.5c-0.7,0.3-1.4,0.7-2,1.3c-0.6,0.6-1,1.3-1.4,2C44.3,6,44.1,6.9,44,7.8L56.5,7.9L56.5,7.9z"/>
		<path id="Path_4" class="st0" d="M63,19.2V0.3h1c0.3,0,0.5,0.2,0.6,0.5l0.2,2.7c0.7-1,1.5-1.9,2.5-2.6c0.9-0.6,2.1-1,3.2-1
			c1.2-0.1,2.4,0.4,3.3,1.2c0.9,0.9,1.5,2.1,1.7,3.3c0.2-0.7,0.5-1.4,0.9-2c0.4-0.5,0.9-1,1.4-1.4c0.5-0.4,1.1-0.7,1.8-0.8
			C80.2,0.1,80.8,0,81.5,0c0.9,0,1.7,0.1,2.5,0.5c0.7,0.3,1.4,0.8,1.9,1.4c0.5,0.7,1,1.4,1.2,2.2c0.3,1,0.4,2,0.4,3v12.1h-1.8v-12
			c0.1-1.5-0.3-3-1.2-4.2c-0.8-1-2.1-1.5-3.4-1.4c-0.6,0-1.3,0.1-1.9,0.4c-0.6,0.2-1.1,0.6-1.6,1.1c-0.5,0.5-0.9,1.1-1.1,1.8
			c-0.3,0.8-0.4,1.6-0.4,2.5v12.1h-1.8V7.1c0.1-1.5-0.3-3-1.1-4.2c-0.8-1-1.9-1.5-3.2-1.5c-1,0-2,0.3-2.8,0.9
			c-0.9,0.7-1.7,1.5-2.3,2.5v14.3H63z"/>
	</g>
	<path id="Path_5" class="st0" d="M31.5,22.6c0,2.9-2.4,5.3-5.3,5.3c-2.9,0-5.3-2.4-5.3-5.3s2.4-5.3,5.3-5.3
		C29.1,17.3,31.5,19.7,31.5,22.6z"/>
	<path id="Path_6" class="st0" d="M42.6,16.8L34.5,2.7C33.5,1,31.8,0,29.8,0H13.6c-1.9,0-3.7,1-4.7,2.7L0.7,16.8c-1,1.7-1,3.7,0,5.4
		l8.1,14.1c1,1.7,2.8,2.7,4.7,2.7h16.3c1.9,0,3.7-1,4.7-2.7l8.1-14.1C43.6,20.5,43.6,18.5,42.6,16.8z M10.3,27.2c-0.1,0-0.2,0-0.2,0
		c-0.6,0-1.1-0.4-1.3-1c-0.2-1.2-0.4-2.4-0.4-3.6c0-7.5,4.7-14.2,11.8-16.7c0.7-0.2,1.4,0.1,1.6,0.8c0.2,0.7-0.1,1.4-0.8,1.6
		C15,10.4,11,16.2,11,22.6c0,1,0.1,2,0.3,3C11.4,26.3,11,27,10.3,27.2C10.3,27.2,10.3,27.2,10.3,27.2z M15,26.2c-0.1,0-0.2,0-0.2,0
		c-0.6,0-1.1-0.4-1.3-1c-1.3-6.3,2.2-12.7,8.3-14.8c0.7-0.2,1.4,0.1,1.6,0.8c0.2,0.7-0.1,1.4-0.8,1.6c-4.2,1.4-6.9,5.4-6.9,9.8
		c0,0.7,0.1,1.4,0.2,2.1C16.1,25.4,15.7,26.1,15,26.2z M26.2,31.1c-4.7,0-8.5-3.8-8.5-8.5s3.8-8.5,8.5-8.5s8.5,3.8,8.5,8.5l0,0
		C34.6,27.3,30.9,31.1,26.2,31.1L26.2,31.1z"/>
</g>
</svg>
